<svg width="22" height="22" viewBox="0 0 22 22" fill="none" xmlns="http://www.w3.org/2000/svg">
<path d="M6 1H5.00024C3.60011 1 2.89953 1 2.36475 1.27248C1.89434 1.51217 1.51217 1.89434 1.27248 2.36475C1 2.89953 1 3.60011 1 5.00024V17.0002C1 18.4004 1 19.1001 1.27248 19.6349C1.51217 20.1053 1.89434 20.4881 2.36475 20.7278C2.899 21 3.59874 21 4.99614 21H6M6 1H17.0002C18.4004 1 19.0995 1 19.6342 1.27248C20.1046 1.51217 20.4881 1.89434 20.7278 2.36475C21 2.899 21 3.59874 21 4.99614V17.0045C21 18.4019 21 19.1006 20.7278 19.6349C20.4881 20.1053 20.1046 20.4881 19.6342 20.7278C19.1 21 18.4013 21 17.0039 21H6M6 1V21M11 9.75H16M11 6H16" stroke="#0B4C43" stroke-width="2" stroke-linecap="round" stroke-linejoin="round"/>
</svg>
