<svg width="35" height="36" viewBox="0 0 35 36" fill="none" xmlns="http://www.w3.org/2000/svg">
<circle cx="17.5" cy="18.1035" r="17.5" fill="#0B4C43" fill-opacity="0.1"/>
<path d="M17.5 19.9375L19.9375 17.5M19.9375 17.5L17.5 15.0625M19.9375 17.5H11M15.0625 13.6395V13.6002C15.0625 12.6901 15.0625 12.2347 15.2396 11.8871C15.3954 11.5813 15.6438 11.3329 15.9496 11.1771C16.2972 11 16.7526 11 17.6627 11H21.4002C22.3102 11 22.7647 11 23.1123 11.1771C23.418 11.3329 23.6673 11.5813 23.8231 11.8871C24 12.2344 24 12.6892 24 13.5975V21.4029C24 22.3112 24 22.7654 23.8231 23.1127C23.6673 23.4184 23.418 23.6673 23.1123 23.8231C22.765 24 22.3108 24 21.4025 24H17.66C16.7517 24 16.2969 24 15.9496 23.8231C15.6438 23.6673 15.3954 23.4182 15.2396 23.1124C15.0625 22.7648 15.0625 22.3101 15.0625 21.4V21.3594" stroke="#C62424" stroke-width="2" stroke-linecap="round" stroke-linejoin="round"/>
</svg>
