<svg width="30" height="30" viewBox="0 0 30 30" fill="none" xmlns="http://www.w3.org/2000/svg">
<circle cx="15" cy="15" r="15" fill="#0B4C43" fill-opacity="0.1"/>
<path d="M13.8899 11.5588C13.7549 11.2213 13.4281 11 13.0646 11H11.8421C11.377 11 11 11.3769 11 11.842C11 15.7952 14.2047 19 18.1578 19C18.6229 19 18.9998 18.6229 18.9998 18.1579L19 16.9351C19 16.5716 18.7788 16.2448 18.4413 16.1098L17.2696 15.6413C16.9665 15.5201 16.6213 15.5746 16.3705 15.7836L16.0681 16.0359C15.7149 16.3302 15.1953 16.3068 14.8702 15.9817L14.0187 15.1294C13.6936 14.8043 13.6696 14.285 13.9639 13.9319L14.2161 13.6295C14.4251 13.3786 14.4801 13.0334 14.3589 12.7303L13.8899 11.5588Z" stroke="#0B4C43" stroke-linecap="round" stroke-linejoin="round"/>
</svg>
