<svg width="35" height="35" viewBox="0 0 35 35" fill="none" xmlns="http://www.w3.org/2000/svg">
<circle cx="17.5" cy="17.5" r="17.5" fill="#0B4C43" fill-opacity="0.1"/>
<path d="M15.5838 20.9867H11.2255V25.3449M19.0704 14.0135H23.4286V9.65527M10.8621 14.8881C11.3508 13.6785 12.169 12.6302 13.2238 11.8625C14.2786 11.0947 15.5287 10.6381 16.83 10.5448C18.1313 10.4515 19.4319 10.7251 20.5854 11.3346C21.7389 11.9441 22.6975 12.8651 23.3537 13.9927M23.7926 20.1125C23.3038 21.3221 22.4856 22.3704 21.4308 23.1381C20.376 23.9059 19.1272 24.362 17.8259 24.4552C16.5246 24.5485 15.223 24.2749 14.0695 23.6655C12.9159 23.056 11.9567 22.1351 11.3004 21.0075" stroke="#0B4C43" stroke-width="2" stroke-linecap="round" stroke-linejoin="round"/>
</svg>
