<svg width="18" height="18" viewBox="0 0 18 18" fill="none" xmlns="http://www.w3.org/2000/svg">
<path d="M17.2499 2.77654C17.2499 2.24223 17.2495 1.97488 17.136 1.7708C17.0361 1.59129 16.8774 1.44545 16.6814 1.35398C16.4585 1.25 16.1662 1.25 15.5828 1.25H2.24951C1.66612 1.25 1.37472 1.25 1.1519 1.35398C0.955894 1.44545 0.796655 1.59129 0.696787 1.7708C0.583252 1.97488 0.583252 2.24223 0.583252 2.77654V3.4799C0.583252 3.71325 0.583252 3.83001 0.612033 3.93981C0.637551 4.03715 0.679744 4.13014 0.736857 4.2155C0.801255 4.31175 0.891489 4.39439 1.07153 4.55929L6.34522 9.38929C6.52537 9.55427 6.61496 9.63633 6.67937 9.7326C6.73649 9.81796 6.77925 9.91127 6.80477 10.0086C6.83326 10.1173 6.83325 10.2327 6.83325 10.4613V14.9985C6.83325 15.8163 6.83325 16.2255 7.02132 16.4717C7.18554 16.6868 7.43888 16.8302 7.72233 16.8686C8.04694 16.9125 8.44649 16.7298 9.24516 16.3641L10.0785 15.9825C10.4129 15.8293 10.5797 15.7525 10.7019 15.6382C10.81 15.5372 10.8926 15.4159 10.943 15.2822C10.9999 15.131 10.9999 14.9593 10.9999 14.6169V10.4684C10.9999 10.235 10.9999 10.1184 11.0287 10.0086C11.0542 9.91127 11.0964 9.81796 11.1535 9.7326C11.2175 9.63697 11.3069 9.55513 11.4846 9.39233L11.4882 9.38929L16.7619 4.55929C16.942 4.39428 17.0316 4.31178 17.096 4.2155C17.1532 4.13014 17.1959 4.03715 17.2214 3.93981C17.2499 3.83113 17.2499 3.71563 17.2499 3.48701V2.77654Z" stroke="#0B4C43" stroke-linecap="round" stroke-linejoin="round"/>
</svg>
