<svg width="30" height="30" viewBox="0 0 30 30" fill="none" xmlns="http://www.w3.org/2000/svg">
<circle cx="15" cy="15" r="15" fill="#0B4C43" fill-opacity="0.1"/>
<path d="M9 15H12.3333M9 15C9 18.3137 11.6863 21 15 21M9 15C9 11.6863 11.6863 9 15 9M12.3333 15H17.6667M12.3333 15C12.3333 18.3137 13.5272 21 15 21M12.3333 15C12.3333 11.6863 13.5272 9 15 9M17.6667 15H21M17.6667 15C17.6667 11.6863 16.4728 9 15 9M17.6667 15C17.6667 18.3137 16.4728 21 15 21M21 15C21 11.6863 18.3137 9 15 9M21 15C21 18.3137 18.3137 21 15 21" stroke="#0B4C43" stroke-linecap="round" stroke-linejoin="round"/>
</svg>
