<svg width="30" height="30" viewBox="0 0 30 30" fill="none" xmlns="http://www.w3.org/2000/svg">
<circle cx="15" cy="15" r="15" fill="#0B4C43" fill-opacity="0.1"/>
<path d="M10.5556 11.5714L13.9487 14.207L13.9498 14.208C14.3266 14.4922 14.5151 14.6343 14.7215 14.6893C14.904 14.7378 15.0958 14.7378 15.2783 14.6893C15.485 14.6343 15.674 14.4917 16.0514 14.207C16.0514 14.207 18.2278 12.4891 19.4444 11.5714M10 17.1715V12.8287C10 12.1886 10 11.8684 10.1211 11.6239C10.2276 11.4088 10.3975 11.2341 10.6066 11.1246C10.8442 11 11.1556 11 11.7779 11H18.2223C18.8446 11 19.1553 11 19.393 11.1246C19.6021 11.2341 19.7725 11.4088 19.879 11.6239C20 11.8681 20 12.188 20 12.8268V17.1735C20 17.8123 20 18.1317 19.879 18.3759C19.7725 18.591 19.6021 18.766 19.393 18.8756C19.1556 19 18.845 19 18.2239 19H11.7761C11.155 19 10.844 19 10.6066 18.8756C10.3975 18.766 10.2276 18.591 10.1211 18.3759C10 18.1315 10 17.8116 10 17.1715Z" stroke="#0B4C43" stroke-linecap="round" stroke-linejoin="round"/>
</svg>
