<svg width="18" height="19" viewBox="0 0 18 19" fill="none" xmlns="http://www.w3.org/2000/svg">
<path d="M11.4999 14.1667V15C11.4999 16.3807 10.3806 17.5 8.99992 17.5C7.61921 17.5 6.49992 16.3807 6.49992 15V14.1667M11.4999 14.1667H6.49992M11.4999 14.1667H14.492C14.8108 14.1667 14.9709 14.1667 15.1 14.1231C15.3465 14.04 15.5395 13.8464 15.6226 13.5998C15.6664 13.4702 15.6664 13.3096 15.6664 12.9883C15.6664 12.8477 15.6662 12.7774 15.6552 12.7104C15.6344 12.5837 15.5852 12.4636 15.5104 12.3593C15.4708 12.3043 15.4205 12.254 15.3214 12.1549L14.9968 11.8302C14.8921 11.7255 14.8333 11.5834 14.8333 11.4353V8.33334C14.8333 5.11167 12.2216 2.49999 8.99992 2.5C5.77826 2.50001 3.16659 5.11168 3.16659 8.33334V11.4354C3.16659 11.5835 3.10762 11.7255 3.00289 11.8302L2.6783 12.1548C2.57889 12.2542 2.52912 12.3042 2.4895 12.3594C2.41463 12.4636 2.36504 12.5837 2.34425 12.7104C2.33325 12.7774 2.33325 12.8477 2.33325 12.9883C2.33325 13.3096 2.33325 13.4702 2.37696 13.5998C2.46013 13.8463 2.65392 14.04 2.90047 14.1231C3.02955 14.1667 3.1891 14.1667 3.50788 14.1667H6.49992M14.0154 1.67806C15.1647 2.54416 16.0702 3.69314 16.6436 5.01312M3.98489 1.67806C2.83554 2.54416 1.93008 3.69314 1.35669 5.01312" stroke="black" stroke-width="2" stroke-linecap="round" stroke-linejoin="round"/>
</svg>
